<svg xmlns="http://www.w3.org/2000/svg" viewBox="0 0 64 64">
  <defs>
    <radialGradient id="b" cx="34%" cy="28%" r="72%">
      <stop offset="0"   stop-color="#ffffff"/>
      <stop offset=".42" stop-color="#c3c9d4"/>
      <stop offset="1"   stop-color="#5c6170"/>
    </radialGradient>
    <clipPath id="c"><circle cx="32" cy="35" r="23"/></clipPath>
  </defs>
  <rect width="64" height="64" rx="14" fill="#150610"/>
  <path d="M32 6v6" stroke="#8e94a3" stroke-width="2.4" stroke-linecap="round"/>
  <circle cx="32" cy="35" r="23" fill="url(#b)"/>
  <g clip-path="url(#c)" fill="none" stroke="#150610" stroke-width="1.5" opacity=".62">
    <path d="M9 24h46M9 30h46M9 35h46M9 40h46M9 46h46"/>
    <path d="M17 12v46M24 12v46M32 12v46M40 12v46M47 12v46"/>
  </g>
  <g clip-path="url(#c)" fill="#ff3fa4" opacity=".55">
    <rect x="18" y="41" width="6" height="5"/><rect x="40" y="25" width="6" height="5"/>
    <rect x="25" y="30" width="6" height="5"/><rect x="33" y="46" width="6" height="5"/>
  </g>
  <circle cx="32" cy="35" r="23" fill="none" stroke="#e22a8b" stroke-width="2" opacity=".5"/>
</svg>
